<svg width="20" height="24" viewBox="0 0 20 24" fill="none" xmlns="http://www.w3.org/2000/svg">
<path d="M13.8517 0H1.71239C0.768141 0 0 0.768187 0 1.71239V22.2876C0 23.2318 0.768187 24 1.71239 24H13.8518C14.796 24 15.5642 23.2318 15.5642 22.2876V17.2267C15.5642 17.0196 15.3963 16.8517 15.1892 16.8517C14.9821 16.8517 14.8142 17.0196 14.8142 17.2267V19.3408H0.75V4.86511H14.8141V6.76416C14.8141 6.97125 14.982 7.13916 15.1891 7.13916C15.3962 7.13916 15.5641 6.97125 15.5641 6.76416V1.71239C15.5641 0.768187 14.796 0 13.8517 0ZM14.8141 20.0908V22.2876C14.8141 22.8182 14.3824 23.25 13.8517 23.25H1.71239C1.18172 23.25 0.75 22.8182 0.75 22.2876V20.0908H14.8141ZM0.75 4.11511V1.71239C0.75 1.18172 1.18172 0.75 1.71239 0.75H13.8518C14.3825 0.75 14.8142 1.18172 14.8142 1.71239V4.11511H0.75ZM10.6261 2.43253C10.6261 2.63963 10.4582 2.80753 10.2511 2.80753H5.313C5.10591 2.80753 4.938 2.63963 4.938 2.43253C4.938 2.22544 5.10591 2.05753 5.313 2.05753H10.2511C10.4582 2.05753 10.6261 2.22544 10.6261 2.43253ZM6.04247 21.6704C6.04247 21.4633 6.21038 21.2954 6.41747 21.2954H9.14667C9.35377 21.2954 9.52167 21.4633 9.52167 21.6704C9.52167 21.8775 9.35377 22.0454 9.14667 22.0454H6.41747C6.21038 22.0454 6.04247 21.8775 6.04247 21.6704ZM3.23264 11.8975C3.23264 14.4061 5.27353 16.447 7.78209 16.447C10.2907 16.447 12.3315 14.4061 12.3315 11.8975C12.3315 9.38892 10.2907 7.34808 7.78209 7.34808C5.27348 7.34808 3.23264 9.38897 3.23264 11.8975ZM11.5815 11.8975C11.5815 13.9925 9.87708 15.697 7.78205 15.697C5.68702 15.697 3.98259 13.9926 3.98259 11.8975C3.98259 9.8025 5.68702 8.09808 7.78205 8.09808C9.87708 8.09808 11.5815 9.8025 11.5815 11.8975ZM7.78205 9.30483C7.98914 9.30483 8.15705 9.47273 8.15705 9.67983V9.81314C8.66827 9.97308 9.04031 10.4511 9.04031 11.0143C9.04031 11.2214 8.87241 11.3893 8.66531 11.3893C8.45822 11.3893 8.29031 11.2214 8.29031 11.0143C8.29031 10.734 8.06231 10.506 7.78205 10.506C7.50178 10.506 7.27378 10.734 7.27378 11.0143C7.27378 11.2946 7.50178 11.5226 7.78205 11.5226C8.47584 11.5226 9.04031 12.087 9.04031 12.7808C9.04031 13.3441 8.66827 13.822 8.15705 13.982V14.1153C8.15705 14.3224 7.98914 14.4903 7.78205 14.4903C7.57495 14.4903 7.40705 14.3224 7.40705 14.1153V13.982C6.89583 13.822 6.52378 13.3441 6.52378 12.7808C6.52378 12.5737 6.69169 12.4058 6.89878 12.4058C7.10587 12.4058 7.27378 12.5737 7.27378 12.7808C7.27378 13.0611 7.50178 13.2891 7.78205 13.2891C8.06231 13.2891 8.29031 13.0611 8.29031 12.7808C8.29031 12.5006 8.06231 12.2726 7.78205 12.2726C7.08825 12.2726 6.52378 11.7081 6.52378 11.0143C6.52378 10.4511 6.89583 9.97308 7.40705 9.81314V9.67983C7.40705 9.47273 7.57495 9.30483 7.78205 9.30483ZM13.7158 9.98522H18.5151L17.5155 8.98561C17.3691 8.83917 17.3691 8.60175 17.5155 8.45531C17.6619 8.30888 17.8994 8.30888 18.0458 8.45531L19.6856 10.095C19.832 10.2415 19.832 10.4789 19.6856 10.6254L18.0458 12.2652C17.9726 12.3384 17.8766 12.375 17.7806 12.375C17.6847 12.375 17.5887 12.3384 17.5155 12.2652C17.369 12.1187 17.369 11.8813 17.5155 11.7348L18.5151 10.7352H13.7158C13.5087 10.7352 13.3408 10.5673 13.3408 10.3602C13.3408 10.1531 13.5087 9.98522 13.7158 9.98522ZM19.4204 14.0148H14.6212L15.6208 15.0143C15.7672 15.1608 15.7672 15.3982 15.6208 15.5447C15.5475 15.6179 15.4516 15.6545 15.3556 15.6545C15.2596 15.6545 15.1636 15.6179 15.0904 15.5447L13.4506 13.905C13.3803 13.8346 13.3408 13.7393 13.3408 13.6398C13.3408 13.5403 13.3803 13.445 13.4506 13.3746L15.0904 11.7349C15.2369 11.5885 15.4743 11.5885 15.6207 11.7349C15.7672 11.8814 15.7672 12.1187 15.6207 12.2652L14.6211 13.2648H19.4204C19.6275 13.2648 19.7954 13.4327 19.7954 13.6398C19.7954 13.8469 19.6275 14.0148 19.4204 14.0148Z" fill="#1258FD"/>
</svg>
